<svg width="39" height="39" viewBox="0 0 39 39" fill="none" xmlns="http://www.w3.org/2000/svg">
<path d="M12.5938 21.125C13.1325 21.125 13.6491 20.911 14.0301 20.5301C14.411 20.1491 14.625 19.6325 14.625 19.0938C14.625 18.555 14.411 18.0384 14.0301 17.6574C13.6491 17.2765 13.1325 17.0625 12.5938 17.0625C12.055 17.0625 11.5384 17.2765 11.1574 17.6574C10.7765 18.0384 10.5625 18.555 10.5625 19.0938C10.5625 19.6325 10.7765 20.1491 11.1574 20.5301C11.5384 20.911 12.055 21.125 12.5938 21.125ZM21.5312 19.0938C21.5312 19.6325 21.3172 20.1491 20.9363 20.5301C20.5554 20.911 20.0387 21.125 19.5 21.125C18.9613 21.125 18.4446 20.911 18.0637 20.5301C17.6828 20.1491 17.4688 19.6325 17.4688 19.0938C17.4688 18.555 17.6828 18.0384 18.0637 17.6574C18.4446 17.2765 18.9613 17.0625 19.5 17.0625C20.0387 17.0625 20.5554 17.2765 20.9363 17.6574C21.3172 18.0384 21.5312 18.555 21.5312 19.0938ZM26.4062 21.125C26.945 21.125 27.4616 20.911 27.8426 20.5301C28.2235 20.1491 28.4375 19.6325 28.4375 19.0938C28.4375 18.555 28.2235 18.0384 27.8426 17.6574C27.4616 17.2765 26.945 17.0625 26.4062 17.0625C25.8675 17.0625 25.3509 17.2765 24.9699 17.6574C24.589 18.0384 24.375 18.555 24.375 19.0938C24.375 19.6325 24.589 20.1491 24.9699 20.5301C25.3509 20.911 25.8675 21.125 26.4062 21.125ZM14.625 25.5938C14.625 26.1325 14.411 26.6491 14.0301 27.0301C13.6491 27.411 13.1325 27.625 12.5938 27.625C12.055 27.625 11.5384 27.411 11.1574 27.0301C10.7765 26.6491 10.5625 26.1325 10.5625 25.5938C10.5625 25.055 10.7765 24.5384 11.1574 24.1574C11.5384 23.7765 12.055 23.5625 12.5938 23.5625C13.1325 23.5625 13.6491 23.7765 14.0301 24.1574C14.411 24.5384 14.625 25.055 14.625 25.5938ZM19.5 27.625C20.0387 27.625 20.5554 27.411 20.9363 27.0301C21.3172 26.6491 21.5312 26.1325 21.5312 25.5938C21.5312 25.055 21.3172 24.5384 20.9363 24.1574C20.5554 23.7765 20.0387 23.5625 19.5 23.5625C18.9613 23.5625 18.4446 23.7765 18.0637 24.1574C17.6828 24.5384 17.4688 25.055 17.4688 25.5938C17.4688 26.1325 17.6828 26.6491 18.0637 27.0301C18.4446 27.411 18.9613 27.625 19.5 27.625ZM4.875 9.95312C4.875 8.60632 5.41002 7.31468 6.36235 6.36235C7.31468 5.41002 8.60632 4.875 9.95312 4.875H29.0469C30.3937 4.875 31.6853 5.41002 32.6377 6.36235C33.59 7.31468 34.125 8.60632 34.125 9.95312V29.0469C34.125 30.3937 33.59 31.6853 32.6377 32.6377C31.6853 33.59 30.3937 34.125 29.0469 34.125H9.95312C8.60632 34.125 7.31468 33.59 6.36235 32.6377C5.41002 31.6853 4.875 30.3937 4.875 29.0469V9.95312ZM9.95312 6.90625C9.14504 6.90625 8.37006 7.22726 7.79866 7.79866C7.22726 8.37006 6.90625 9.14504 6.90625 9.95312V11.375H32.0938V9.95312C32.0938 9.14504 31.7727 8.37006 31.2013 7.79866C30.6299 7.22726 29.855 6.90625 29.0469 6.90625H9.95312ZM6.90625 29.0469C6.90625 29.855 7.22726 30.6299 7.79866 31.2013C8.37006 31.7727 9.14504 32.0938 9.95312 32.0938H29.0469C29.855 32.0938 30.6299 31.7727 31.2013 31.2013C31.7727 30.6299 32.0938 29.855 32.0938 29.0469V13.4062H6.90625V29.0469Z" fill="#3C3E4C"/>
</svg>
