<svg width="24" height="24" viewBox="0 0 24 24" fill="none" xmlns="http://www.w3.org/2000/svg">
<path d="M14 21V18C14 17.4695 13.7893 16.9608 13.4142 16.5857C13.0391 16.2107 12.5304 16 12 16C11.4696 16 10.9609 16.2107 10.5858 16.5857C10.2107 16.9608 10 17.4695 10 18V21M18 4.99996V21M4 5.99996L11.106 2.20996C11.3836 2.07124 11.6897 1.99902 12 1.99902C12.3103 1.99902 12.6164 2.07124 12.894 2.20996L20 5.99996" stroke="#3C3E4C" stroke-width="2" stroke-linecap="round" stroke-linejoin="round"/>
<path d="M6 11L2.48 13.147C2.33345 13.2362 2.21232 13.3616 2.12826 13.5112C2.0442 13.6608 2.00003 13.8294 2 14.001V19C2 19.5304 2.21071 20.0391 2.58579 20.4142C2.96086 20.7893 3.46957 21 4 21H20C20.5304 21 21.0391 20.7893 21.4142 20.4142C21.7893 20.0391 22 19.5304 22 19V14C21.9998 13.8286 21.9555 13.6601 21.8715 13.5108C21.7874 13.3614 21.6664 13.2361 21.52 13.147L18 11M6 5V21" stroke="#3C3E4C" stroke-width="2" stroke-linecap="round" stroke-linejoin="round"/>
<path d="M12 11C13.1046 11 14 10.1046 14 9C14 7.89543 13.1046 7 12 7C10.8954 7 10 7.89543 10 9C10 10.1046 10.8954 11 12 11Z" stroke="#3C3E4C" stroke-width="2" stroke-linecap="round" stroke-linejoin="round"/>
</svg>
