<svg width="3" height="14" viewBox="0 0 3 14" fill="none" xmlns="http://www.w3.org/2000/svg">
<g clip-path="url(#clip0_156_409)">
<path d="M1.5 3C2.32 3 3 2.32 3 1.5C3 0.68 2.32 0 1.5 0C0.68 0 0 0.67 0 1.5C0 2.33 0.68 3 1.5 3ZM1.5 8.5C2.32 8.5 3 7.82 3 7C3 6.18 2.32 5.5 1.5 5.5C0.68 5.5 0 6.18 0 7C0 7.82 0.68 8.5 1.5 8.5ZM1.5 14C2.32 14 3 13.33 3 12.5C3 11.68 2.32 11 1.5 11C0.68 11 0 11.68 0 12.5C0 13.33 0.68 14 1.5 14Z" fill="#3C3E4C"/>
</g>
<defs>
<clipPath id="clip0_156_409">
<rect width="3" height="14" fill="white"/>
</clipPath>
</defs>
</svg>
