<svg width="35" height="35" viewBox="0 0 35 35" fill="none" xmlns="http://www.w3.org/2000/svg">
<path d="M17.5003 22.7164L12.3393 17.5568L13.3718 16.5068L16.7712 19.9062V7.29163H18.2295V19.9062L21.6274 16.5083L22.6614 17.5568L17.5003 22.7164ZM9.64866 27.7083C8.97685 27.7083 8.41637 27.4837 7.9672 27.0345C7.51803 26.5854 7.29296 26.0244 7.29199 25.3516V21.8181H8.75033V25.3516C8.75033 25.5762 8.84366 25.7823 9.03033 25.97C9.21699 26.1576 9.42262 26.2509 9.6472 26.25H25.3535C25.5771 26.25 25.7827 26.1566 25.9703 25.97C26.158 25.7833 26.2513 25.5772 26.2503 25.3516V21.8181H27.7087V25.3516C27.7087 26.0234 27.4841 26.5839 27.0349 27.0331C26.5857 27.4823 26.0248 27.7073 25.352 27.7083H9.64866Z" fill="#3C3E4C"/>
</svg>
