<svg width="38" height="38" viewBox="0 0 38 38" fill="none" xmlns="http://www.w3.org/2000/svg">
<path d="M12.6673 22.1666H25.334M12.6673 15.8333H15.834M12.6673 28.4999H19.0007M15.834 4.74992H9.50065C8.6608 4.74992 7.85534 5.08355 7.26148 5.67741C6.66761 6.27128 6.33398 7.07673 6.33398 7.91659V31.6666C6.33398 32.5064 6.66761 33.3119 7.26148 33.9058C7.85534 34.4996 8.6608 34.8333 9.50065 34.8333H28.5007C29.3405 34.8333 30.146 34.4996 30.7398 33.9058C31.3337 33.3119 31.6673 32.5064 31.6673 31.6666V7.91659C31.6673 7.07673 31.3337 6.27128 30.7398 5.67741C30.146 5.08355 29.3405 4.74992 28.5007 4.74992H22.959M15.834 4.74992V1.58325M15.834 4.74992V7.91659" stroke="#3C3E4C" stroke-width="1.5" stroke-linecap="round" stroke-linejoin="round"/>
</svg>
