<svg width="25" height="25" viewBox="0 0 25 25" fill="none" xmlns="http://www.w3.org/2000/svg">
<path d="M12.5 1.5625C6.45996 1.5625 1.5625 6.45996 1.5625 12.5C1.5625 18.54 6.45996 23.4375 12.5 23.4375C18.54 23.4375 23.4375 18.54 23.4375 12.5C23.4375 6.45996 18.54 1.5625 12.5 1.5625ZM16.5771 17.0312C15.5859 17.9443 14.2334 18.4814 12.6196 18.4814C10.2832 18.4814 8.26172 17.1411 7.27783 15.188C6.87256 14.3799 6.64062 13.4668 6.64062 12.5C6.64062 11.5332 6.87256 10.6201 7.27783 9.81201C8.26172 7.85645 10.2832 6.51611 12.6196 6.51611C14.231 6.51611 15.5835 7.10938 16.6211 8.07373L14.9072 9.79004C14.2871 9.19678 13.4985 8.89648 12.6221 8.89648C11.0645 8.89648 9.74609 9.94873 9.2749 11.3623C9.15527 11.7212 9.08691 12.1045 9.08691 12.5C9.08691 12.8955 9.15527 13.2788 9.2749 13.6377C9.74609 15.0513 11.0645 16.1035 12.6196 16.1035C13.4253 16.1035 14.1089 15.8911 14.6436 15.5322C15.2783 15.1074 15.6982 14.4751 15.8374 13.7256H12.6196V11.4111H18.252C18.3228 11.8042 18.3594 12.2119 18.3594 12.6343C18.3594 14.458 17.7075 15.9888 16.5771 17.0312Z" fill="#64677E"/>
</svg>
