<svg width="346" height="152" viewBox="0 0 346 152" fill="none" xmlns="http://www.w3.org/2000/svg">
<g clip-path="url(#clip0_223_440)">
<path d="M112.54 76.3363C112.54 86.3058 108.828 93.8467 101.404 98.9592C93.9799 104.072 83.9959 106.628 71.4519 106.628C64.2839 106.628 58.0759 106.053 52.8279 104.903C47.7079 103.752 43.1639 102.155 39.1959 100.11V84.772C43.2919 86.817 48.2199 88.7342 53.9799 90.5236C59.8679 92.1852 65.8199 93.0159 71.8359 93.0159C80.4119 93.0159 86.6199 91.6739 90.4599 88.9898C94.2999 86.1779 96.2199 82.4714 96.2199 77.8701C96.2199 75.3139 95.516 73.0132 94.108 70.9682C92.7 68.9232 90.1399 66.8782 86.4279 64.8332C82.8439 62.7882 77.6599 60.4875 70.8759 57.9313C64.2199 55.375 58.5239 52.8188 53.7879 50.2625C49.0519 47.7062 45.4039 44.6387 42.8439 41.0599C40.2839 37.4812 39.0039 32.8799 39.0039 27.2562C39.0039 18.5649 42.5239 11.8547 49.5639 7.1256C56.7319 2.39652 66.0759 0.0319824 77.5959 0.0319824C83.8679 0.0319824 89.692 0.671049 95.068 1.94918C100.572 3.22731 105.692 4.88889 110.428 6.9339L104.668 20.3542C100.316 18.5649 95.7719 17.0311 91.0359 15.753C86.2999 14.4749 81.4359 13.8358 76.4439 13.8358C69.5319 13.8358 64.2199 14.9861 60.5079 17.2868C56.9239 19.4596 55.1319 22.4632 55.1319 26.2976C55.1319 29.2373 55.9639 31.6657 57.6279 33.5829C59.2919 35.5001 62.0439 37.4173 65.8839 39.3345C69.8519 41.2517 75.0999 43.4245 81.6279 45.8529C88.1559 48.2814 93.724 50.7738 98.332 53.33C102.94 55.8863 106.46 59.0177 108.892 62.7243C111.324 66.303 112.54 70.8404 112.54 76.3363Z" fill="#3C3E4C"/>
<path d="M79.0465 0C99.5056 0 115.935 4.41599 128.334 13.248C140.941 22.08 147.244 35.392 147.244 53.184C147.244 87.7359 119.4 106.297 86.1541 109.225C68.1692 110.808 55.693 107.34 47.22 104.396C38.9537 101.452 32.0319 95.872 27.2788 91.776C27.1282 102.997 27.2074 102.968 27.2788 108.672V150.912H0V1.91998H22.319L26.0388 15.936H27.2788C32.2386 11.456 38.7483 7.68 46.8079 4.608C54.8676 1.536 65.6138 0 79.0465 0ZM74.0868 14.208C57.1408 14.208 45.1547 17.152 38.1283 23.04C31.102 28.928 27.4855 37.888 27.2788 49.92V53.184C27.2788 65.856 30.5853 75.648 37.1984 82.56C44.0181 89.344 56.5208 92.736 74.7067 92.736C84.6263 92.736 92.8926 91.072 99.5056 87.744C106.119 84.288 110.975 79.552 114.075 73.536C117.382 67.52 119.035 60.672 119.035 52.992C119.035 41.216 115.315 31.808 107.875 24.768C100.642 17.728 89.3794 14.208 74.0868 14.208Z" fill="#3C3E4C"/>
<path d="M163.196 104.999C164.05 104.999 164.924 104.935 165.82 104.807C166.716 104.679 167.442 104.508 167.996 104.295V108.583C167.399 108.882 166.546 109.116 165.436 109.287C164.327 109.5 163.26 109.607 162.236 109.607C160.444 109.607 158.78 109.309 157.244 108.711C155.751 108.071 154.535 106.983 153.596 105.447C152.658 103.911 152.188 101.757 152.188 98.9832V79.0151H147.324V76.3271L152.252 74.0871L154.492 66.7911H157.82V74.6631H167.74V79.0151H157.82V98.8551C157.82 100.946 158.311 102.503 159.292 103.527C160.316 104.508 161.618 104.999 163.196 104.999ZM203.516 74.6631V108.967H198.908L198.076 104.423H197.82C196.711 106.215 195.175 107.538 193.212 108.391C191.249 109.202 189.159 109.607 186.94 109.607C182.802 109.607 179.687 108.626 177.596 106.663C175.506 104.658 174.46 101.479 174.46 97.1271V74.6631H180.156V96.7431C180.156 102.204 182.695 104.935 187.772 104.935C191.569 104.935 194.194 103.868 195.644 101.735C197.137 99.6018 197.884 96.5298 197.884 92.5191V74.6631H203.516ZM226.556 109.607C222.289 109.607 218.876 108.135 216.316 105.191C213.756 102.204 212.476 97.7671 212.476 91.8791C212.476 85.9911 213.756 81.5538 216.316 78.5671C218.919 75.5378 222.353 74.0231 226.62 74.0231C229.265 74.0231 231.42 74.5138 233.084 75.4951C234.791 76.4764 236.177 77.6711 237.244 79.0791H237.628C237.543 78.5244 237.457 77.7138 237.372 76.6471C237.287 75.5378 237.244 74.6631 237.244 74.0231V60.3271H242.876V108.967H238.332L237.5 104.359H237.244C236.22 105.81 234.855 107.047 233.148 108.071C231.442 109.095 229.244 109.607 226.556 109.607ZM227.452 104.935C231.079 104.935 233.617 103.954 235.068 101.991C236.561 99.9857 237.308 96.9778 237.308 92.9671V91.9431C237.308 87.6764 236.604 84.4124 235.196 82.1511C233.788 79.8471 231.185 78.6951 227.388 78.6951C224.359 78.6951 222.076 79.9111 220.54 82.3431C219.047 84.7324 218.3 87.9538 218.3 92.0071C218.3 96.1031 219.047 99.2817 220.54 101.543C222.076 103.804 224.38 104.935 227.452 104.935ZM267.004 74.0231C269.905 74.0231 272.423 74.6631 274.556 75.9431C276.689 77.2231 278.311 79.0364 279.42 81.3831C280.572 83.6871 281.148 86.3964 281.148 89.5111V92.9031H257.66C257.745 96.7858 258.727 99.7511 260.604 101.799C262.524 103.804 265.191 104.807 268.604 104.807C270.78 104.807 272.7 104.615 274.364 104.231C276.071 103.804 277.82 103.207 279.612 102.439V107.367C277.863 108.135 276.135 108.69 274.428 109.031C272.721 109.415 270.695 109.607 268.348 109.607C265.063 109.607 262.183 108.946 259.708 107.623C257.233 106.3 255.292 104.338 253.884 101.735C252.519 99.1324 251.836 95.9111 251.836 92.0711C251.836 88.3164 252.455 85.0951 253.692 82.4071C254.972 79.7191 256.743 77.6498 259.004 76.1991C261.308 74.7484 263.975 74.0231 267.004 74.0231ZM266.94 78.6311C264.252 78.6311 262.119 79.5058 260.54 81.2551C259.004 82.9618 258.087 85.3511 257.788 88.4231H275.26C275.218 85.5218 274.535 83.1751 273.212 81.3831C271.889 79.5484 269.799 78.6311 266.94 78.6311ZM306.364 74.0231C310.46 74.0231 313.553 75.0258 315.644 77.0311C317.735 79.0365 318.78 82.2364 318.78 86.6311V108.967H313.212V87.0151C313.212 81.5111 310.652 78.7591 305.532 78.7591C301.735 78.7591 299.111 79.8258 297.66 81.9591C296.209 84.0924 295.484 87.1644 295.484 91.1751V108.967H289.852V74.6631H294.396L295.228 79.3351H295.548C296.657 77.5431 298.193 76.2204 300.156 75.3671C302.119 74.4711 304.188 74.0231 306.364 74.0231ZM340.86 104.999C341.713 104.999 342.588 104.935 343.484 104.807C344.38 104.679 345.105 104.508 345.66 104.295V108.583C345.063 108.882 344.209 109.116 343.1 109.287C341.991 109.5 340.924 109.607 339.9 109.607C338.108 109.607 336.444 109.309 334.908 108.711C333.415 108.071 332.199 106.983 331.26 105.447C330.321 103.911 329.852 101.757 329.852 98.9832V79.0152H324.988V76.3271L329.916 74.0871L332.156 66.7911H335.484V74.6631H345.404V79.0151H335.484V98.8551C335.484 100.946 335.975 102.503 336.956 103.527C337.98 104.508 339.281 104.999 340.86 104.999Z" fill="#3C3E4C"/>
<path d="M38.0216 150.92H32.3896V102.281H38.0216V150.92ZM61.8935 116.041C66.0749 116.041 69.1682 116.958 71.1735 118.792C73.1789 120.627 74.1815 123.55 74.1815 127.56V150.92H70.0855L68.9975 146.056H68.7416C67.2482 147.934 65.6696 149.32 64.0056 150.216C62.3416 151.112 60.0802 151.56 57.2216 151.56C54.1069 151.56 51.5256 150.75 49.4776 149.128C47.4296 147.464 46.4056 144.883 46.4056 141.384C46.4056 137.971 47.7496 135.347 50.4376 133.512C53.1256 131.635 57.2642 130.611 62.8536 130.44L68.6775 130.248V128.2C68.6775 125.342 68.0589 123.358 66.8216 122.248C65.5842 121.139 63.8349 120.584 61.5736 120.584C59.7816 120.584 58.0749 120.862 56.4536 121.417C54.8322 121.929 53.3176 122.526 51.9096 123.208L50.1816 118.984C51.6749 118.174 53.4456 117.491 55.4936 116.937C57.5416 116.339 59.6749 116.041 61.8935 116.041ZM68.6135 134.152L63.5575 134.344C59.2909 134.515 56.3256 135.198 54.6616 136.392C53.0402 137.587 52.2296 139.272 52.2296 141.448C52.2296 143.368 52.8056 144.776 53.9576 145.672C55.1522 146.568 56.6669 147.016 58.5016 147.016C61.3602 147.016 63.7495 146.227 65.6695 144.648C67.6322 143.027 68.6135 140.552 68.6135 137.224V134.152ZM101.318 115.977C105.414 115.977 108.507 116.979 110.598 118.984C112.688 120.99 113.734 124.19 113.734 128.584V150.92H108.166V128.968C108.166 123.464 105.606 120.712 100.486 120.712C96.6882 120.712 94.0642 121.779 92.6136 123.912C91.1629 126.046 90.4375 129.118 90.4375 133.128V150.92H84.8056V116.616H89.3496L90.1815 121.288H90.5016C91.6109 119.496 93.1469 118.174 95.1096 117.32C97.0722 116.425 99.1415 115.977 101.318 115.977ZM140.869 115.977C144.965 115.977 148.059 116.979 150.149 118.984C152.24 120.99 153.285 124.19 153.285 128.584V150.92H147.717V128.968C147.717 123.464 145.157 120.712 140.037 120.712C136.24 120.712 133.616 121.779 132.165 123.912C130.715 126.046 129.989 129.118 129.989 133.128V150.92H124.357V116.616H128.901L129.733 121.288H130.053C131.163 119.496 132.699 118.174 134.661 117.32C136.624 116.425 138.693 115.977 140.869 115.977ZM177.157 115.977C180.059 115.977 182.576 116.616 184.709 117.896C186.843 119.176 188.464 120.99 189.573 123.336C190.725 125.64 191.301 128.35 191.301 131.464V134.856H167.813C167.899 138.739 168.88 141.704 170.757 143.752C172.677 145.758 175.344 146.76 178.757 146.76C180.933 146.76 182.853 146.568 184.517 146.184C186.224 145.758 187.973 145.16 189.765 144.392V149.32C188.016 150.088 186.288 150.643 184.581 150.984C182.875 151.368 180.848 151.56 178.501 151.56C175.216 151.56 172.336 150.899 169.861 149.576C167.387 148.254 165.445 146.291 164.037 143.688C162.672 141.086 161.989 137.864 161.989 134.024C161.989 130.27 162.608 127.048 163.845 124.36C165.125 121.672 166.896 119.603 169.157 118.153C171.461 116.702 174.128 115.977 177.157 115.977ZM177.093 120.584C174.405 120.584 172.272 121.459 170.693 123.208C169.157 124.915 168.24 127.304 167.941 130.376H185.413C185.371 127.475 184.688 125.128 183.365 123.336C182.043 121.502 179.952 120.584 177.093 120.584ZM216.005 115.977C216.645 115.977 217.328 116.019 218.053 116.105C218.779 116.147 219.44 116.233 220.037 116.361L219.333 121.544C218.779 121.416 218.16 121.31 217.477 121.224C216.795 121.139 216.176 121.096 215.621 121.096C213.872 121.096 212.229 121.587 210.693 122.568C209.157 123.507 207.92 124.851 206.981 126.6C206.085 128.307 205.637 130.312 205.637 132.616V150.92H200.005V116.616H204.613L205.253 122.888H205.509C206.576 121.011 207.984 119.39 209.733 118.024C211.525 116.659 213.616 115.977 216.005 115.977Z" fill="#3C3E4C"/>
</g>
<defs>
<clipPath id="clip0_223_440">
<rect width="345.66" height="151.56" fill="white"/>
</clipPath>
</defs>
</svg>
