<svg width="106" height="47" viewBox="0 0 106 47" fill="none" xmlns="http://www.w3.org/2000/svg">
<path d="M34.5114 23.3355C34.5114 26.3831 33.3731 28.6884 31.0965 30.2512C28.8198 31.8141 25.7581 32.5955 21.9114 32.5955C19.7133 32.5955 17.8095 32.4197 16.2002 32.068C14.6301 31.7164 13.2366 31.228 12.0198 30.6029V25.9143C13.2759 26.5394 14.7871 27.1255 16.5535 27.6725C18.3591 28.1804 20.1843 28.4344 22.0292 28.4344C24.6591 28.4344 26.5628 28.0241 27.7404 27.2036C28.9179 26.3441 29.5067 25.211 29.5067 23.8044C29.5067 23.023 29.2908 22.3197 28.8591 21.6945C28.4273 21.0694 27.6423 20.4442 26.5039 19.8191C25.4049 19.194 23.8151 18.4907 21.7348 17.7092C19.6937 16.9278 17.9469 16.1464 16.4946 15.3649C15.0422 14.5835 13.9236 13.6458 13.1385 12.5518C12.3535 11.4578 11.9609 10.0512 11.9609 8.33205C11.9609 5.67518 13.0404 3.62392 15.1993 2.17827C17.3974 0.73262 20.2628 0.00979614 23.7955 0.00979614C25.7189 0.00979614 27.5049 0.205155 29.1535 0.595871C30.8413 0.986587 32.4114 1.49452 33.8637 2.11967L32.0974 6.22218C30.7628 5.67518 29.3694 5.20632 27.917 4.8156C26.4647 4.42489 24.9731 4.22953 23.4422 4.22953C21.3226 4.22953 19.6936 4.58118 18.5553 5.28447C17.4563 5.94868 16.9067 6.86687 16.9067 8.03901C16.9067 8.93766 17.1619 9.68002 17.6722 10.2661C18.1824 10.8522 19.0264 11.4382 20.2039 12.0243C21.4208 12.6104 23.0301 13.2746 25.032 14.017C27.0338 14.7593 28.7413 15.5212 30.1544 16.3027C31.5675 17.0841 32.6469 18.0413 33.3927 19.1744C34.1385 20.2684 34.5114 21.6555 34.5114 23.3355Z" fill="#64677E"/>
<path d="M24.2403 0C30.5143 0 35.5525 1.34994 39.3549 4.04982C43.2206 6.74971 45.1535 10.8191 45.1535 16.258C45.1535 26.8203 36.6151 32.4942 26.4199 33.3892C20.9047 33.8734 17.0787 32.8133 14.4804 31.9133C11.9455 31.0133 9.82287 29.3074 8.36528 28.0553C8.31909 31.4856 8.3434 31.4765 8.36528 33.2203V46.1328H0V0.586926H6.84432L7.98504 4.87153H8.36528C9.88624 3.50203 11.8825 2.34773 14.3541 1.40864C16.8256 0.469546 20.121 0 24.2403 0ZM22.7194 4.34329C17.5227 4.34329 13.8471 5.24325 11.6924 7.04317C9.53769 8.84309 8.42866 11.5821 8.36528 15.2602V16.258C8.36528 20.1317 9.37926 23.1251 11.4072 25.2381C13.4985 27.3119 17.3326 28.3488 22.9095 28.3488C25.9514 28.3488 28.4863 27.8401 30.5143 26.8228C32.5422 25.7663 34.0315 24.3185 34.9821 22.4795C35.9961 20.6404 36.5031 18.547 36.5031 16.1993C36.5031 12.5995 35.3623 9.7235 33.0809 7.57142C30.8628 5.41934 27.409 4.34329 22.7194 4.34329Z" fill="#64677E"/>
<path d="M50.046 32.0975C50.3077 32.0975 50.5759 32.0779 50.8507 32.0388C51.1254 31.9997 51.3479 31.9475 51.518 31.8823V33.1931C51.3348 33.2844 51.0731 33.3561 50.7329 33.4083C50.3927 33.4735 50.0656 33.5062 49.7516 33.5062C49.2021 33.5062 48.6918 33.4149 48.2208 33.2323C47.7628 33.0366 47.3899 32.704 47.1021 32.2345C46.8142 31.7649 46.6703 31.1063 46.6703 30.2585V24.1544H45.1787V23.3327L46.6899 22.6479L47.3768 20.4176H48.3974V22.824H51.4394V24.1544H48.3974V30.2193C48.3974 30.8584 48.5479 31.3345 48.8488 31.6475C49.1628 31.9475 49.5619 32.0975 50.046 32.0975ZM62.4104 22.824V33.3105H60.9974L60.7422 31.9214H60.6637C60.3235 32.4692 59.8525 32.8736 59.2506 33.1344C58.6488 33.3822 58.0077 33.5061 57.3273 33.5061C56.0581 33.5061 55.103 33.2061 54.4619 32.6062C53.8208 31.9932 53.5002 31.0215 53.5002 29.6911V22.824H55.2469V29.5737C55.2469 31.2432 56.0254 32.0779 57.5824 32.0779C58.7469 32.0779 59.5516 31.7519 59.9964 31.0997C60.4544 30.4476 60.6834 29.5085 60.6834 28.2825V22.824H62.4104ZM69.4759 33.5061C68.1674 33.5061 67.1207 33.0562 66.3357 32.1562C65.5506 31.2432 65.1581 29.8867 65.1581 28.0868C65.1581 26.2869 65.5506 24.9304 66.3357 24.0174C67.1338 23.0914 68.1871 22.6284 69.4955 22.6284C70.3067 22.6284 70.9674 22.7784 71.4777 23.0783C72.0011 23.3783 72.4263 23.7435 72.7534 24.1739H72.8712C72.845 24.0044 72.8188 23.7566 72.7927 23.4305C72.7665 23.0914 72.7534 22.824 72.7534 22.6284V18.4416H74.4805V33.3105H73.0871L72.8319 31.9019H72.7534C72.4394 32.3453 72.0207 32.7236 71.4974 33.0366C70.974 33.3496 70.3002 33.5061 69.4759 33.5061ZM69.7506 32.0779C70.8628 32.0779 71.6413 31.778 72.0861 31.178C72.5441 30.565 72.773 29.6454 72.773 28.4194V28.1064C72.773 26.8021 72.5571 25.8043 72.1254 25.113C71.6936 24.4087 70.8955 24.0566 69.731 24.0566C68.802 24.0566 68.102 24.4283 67.631 25.1717C67.173 25.9021 66.9441 26.8869 66.9441 28.1259C66.9441 29.3781 67.173 30.3498 67.631 31.041C68.102 31.7323 68.8086 32.0779 69.7506 32.0779ZM81.8796 22.6284C82.7693 22.6284 83.5412 22.824 84.1954 23.2153C84.8496 23.6066 85.3468 24.1609 85.687 24.8783C86.0403 25.5826 86.2169 26.4108 86.2169 27.3629V28.3998H79.0141C79.0403 29.5868 79.3413 30.4932 79.9169 31.1193C80.5057 31.7323 81.3235 32.0388 82.3702 32.0388C83.0375 32.0388 83.6263 31.9801 84.1366 31.8627C84.6599 31.7323 85.1964 31.5497 85.7459 31.3149V32.8214C85.2095 33.0562 84.6796 33.2257 84.1562 33.3301C83.6328 33.4474 83.0113 33.5061 82.2917 33.5061C81.2842 33.5061 80.4011 33.304 79.6422 32.8996C78.8833 32.4953 78.288 31.8953 77.8562 31.0997C77.4375 30.3041 77.2282 29.3194 77.2282 28.1455C77.2282 26.9977 77.4179 26.013 77.7973 25.1913C78.1898 24.3696 78.7328 23.737 79.4263 23.2935C80.1328 22.8501 80.9506 22.6284 81.8796 22.6284ZM81.86 24.037C81.0357 24.037 80.3815 24.3044 79.8974 24.8391C79.4263 25.3608 79.145 26.0912 79.0534 27.0303H84.4114C84.3983 26.1434 84.189 25.4261 83.7833 24.8783C83.3777 24.3174 82.7366 24.037 81.86 24.037ZM93.9496 22.6284C95.2057 22.6284 96.1543 22.9349 96.7954 23.5479C97.4365 24.1609 97.7571 25.1391 97.7571 26.4825V33.3105H96.0496V26.5999C96.0496 24.9174 95.2646 24.0761 93.6945 24.0761C92.53 24.0761 91.7253 24.4022 91.2805 25.0543C90.8356 25.7065 90.6132 26.6456 90.6132 27.8716V33.3105H88.8861V22.824H90.2796L90.5347 24.2522H90.6329C90.973 23.7044 91.4441 23.3001 92.0459 23.0392C92.6478 22.7653 93.2823 22.6284 93.9496 22.6284ZM104.528 32.0975C104.79 32.0975 105.058 32.0779 105.333 32.0388C105.608 31.9997 105.83 31.9475 106 31.8823V33.1931C105.817 33.2844 105.555 33.3561 105.215 33.4083C104.875 33.4735 104.548 33.5062 104.234 33.5062C103.684 33.5062 103.174 33.4149 102.703 33.2323C102.245 33.0366 101.872 32.704 101.584 32.2345C101.296 31.7649 101.152 31.1063 101.152 30.2585V24.1544H99.6608V23.3327L101.172 22.6479L101.859 20.4176H102.88V22.824H105.922V24.1544H102.88V30.2193C102.88 30.8584 103.03 31.3345 103.331 31.6475C103.645 31.9475 104.044 32.0975 104.528 32.0975Z" fill="#64677E"/>
<path d="M11.6597 46.1354H9.93262V31.2665H11.6597V46.1354ZM18.9802 35.4728C20.2625 35.4728 21.2111 35.7532 21.826 36.3141C22.441 36.8749 22.7485 37.7684 22.7485 38.9944V46.1354H21.4924L21.1587 44.6485H21.0802C20.6223 45.2224 20.1382 45.6463 19.6279 45.9202C19.1176 46.1941 18.4242 46.331 17.5475 46.331C16.5924 46.331 15.8008 46.0832 15.1728 45.5876C14.5447 45.0789 14.2307 44.2898 14.2307 43.2203C14.2307 42.1769 14.6429 41.3747 15.4672 40.8139C16.2915 40.24 17.5606 39.927 19.2746 39.8748L21.0606 39.8161V39.19C21.0606 38.3162 20.8709 37.7097 20.4915 37.3706C20.112 37.0314 19.5756 36.8619 18.8821 36.8619C18.3326 36.8619 17.8092 36.9467 17.312 37.1162C16.8148 37.2727 16.3503 37.4553 15.9186 37.664L15.3887 36.3728C15.8466 36.125 16.3896 35.9163 17.0176 35.7467C17.6457 35.5641 18.2999 35.4728 18.9802 35.4728ZM21.041 41.0095L19.4905 41.0682C18.1821 41.1204 17.2728 41.329 16.7625 41.6943C16.2653 42.0595 16.0167 42.5747 16.0167 43.2399C16.0167 43.8268 16.1933 44.2572 16.5466 44.5311C16.913 44.805 17.3774 44.942 17.9401 44.942C18.8167 44.942 19.5494 44.7007 20.1382 44.2181C20.7401 43.7224 21.041 42.966 21.041 41.9486V41.0095ZM31.07 35.4533C32.326 35.4533 33.2746 35.7598 33.9157 36.3728C34.5569 36.9858 34.8774 37.964 34.8774 39.3074V46.1354H33.17V39.4248C33.17 37.7423 32.3849 36.901 30.8148 36.901C29.6503 36.901 28.8457 37.2271 28.4008 37.8792C27.9559 38.5314 27.7335 39.4705 27.7335 40.6965V46.1354H26.0064V35.6489H27.3999L27.655 37.0771H27.7531C28.0933 36.5293 28.5644 36.125 29.1662 35.8641C29.7681 35.5902 30.4027 35.4533 31.07 35.4533ZM43.1989 35.4533C44.455 35.4533 45.4036 35.7598 46.0447 36.3728C46.6858 36.9858 47.0064 37.964 47.0064 39.3074V46.1354H45.2989V39.4248C45.2989 37.7423 44.5138 36.901 42.9438 36.901C41.7793 36.901 40.9746 37.2271 40.5297 37.8792C40.0849 38.5314 39.8625 39.4705 39.8625 40.6965V46.1354H38.1354V35.6489H39.5288L39.784 37.0771H39.8821C40.2223 36.5293 40.6933 36.125 41.2952 35.8641C41.897 35.5902 42.5316 35.4533 43.1989 35.4533ZM54.3269 35.4533C55.2166 35.4533 55.9886 35.6489 56.6428 36.0402C57.297 36.4315 57.7942 36.9858 58.1344 37.7032C58.4876 38.4075 58.6643 39.2357 58.6643 40.1878V41.2247H51.4615C51.4877 42.4116 51.7886 43.3181 52.3643 43.9442C52.9531 44.5572 53.7708 44.8637 54.8176 44.8637C55.4848 44.8637 56.0736 44.805 56.5839 44.6876C57.1073 44.5572 57.6437 44.3746 58.1933 44.1398V45.6463C57.6568 45.881 57.1269 46.0506 56.6035 46.1549C56.0802 46.2723 55.4587 46.331 54.7391 46.331C53.7316 46.331 52.8484 46.1289 52.0895 45.7245C51.3307 45.3202 50.7353 44.7202 50.3036 43.9246C49.8849 43.129 49.6755 42.1443 49.6755 40.9704C49.6755 39.8226 49.8652 38.8379 50.2447 38.0162C50.6372 37.1945 51.1802 36.5619 51.8736 36.1184C52.5802 35.675 53.3979 35.4533 54.3269 35.4533ZM54.3073 36.8619C53.483 36.8619 52.8288 37.1293 52.3447 37.664C51.8736 38.1857 51.5923 38.9161 51.5007 39.8552H56.8587C56.8456 38.9683 56.6362 38.2509 56.2306 37.7032C55.825 37.1423 55.1839 36.8619 54.3073 36.8619ZM66.2399 35.4533C66.4362 35.4533 66.6455 35.4663 66.868 35.4924C67.0904 35.5054 67.2932 35.5315 67.4764 35.5706L67.2605 37.1553C67.0904 37.1162 66.9007 37.0836 66.6913 37.0575C66.482 37.0314 66.2923 37.0183 66.1222 37.0183C65.5857 37.0183 65.082 37.1683 64.611 37.4683C64.14 37.7552 63.7605 38.1661 63.4727 38.7008C63.1979 39.2226 63.0605 39.8356 63.0605 40.5399V46.1353H61.3334V35.6488H62.7465L62.9428 37.5661H63.0213C63.3484 36.9922 63.7801 36.4966 64.3166 36.0792C64.8661 35.6619 65.5072 35.4533 66.2399 35.4533Z" fill="#64677E"/>
</svg>
