<svg width="192" height="171" viewBox="0 0 192 171" fill="none" xmlns="http://www.w3.org/2000/svg">
<path d="M2.66669 170.909C3.34972 171.087 4.07537 170.989 4.68635 170.635C5.29733 170.281 5.74442 169.7 5.93069 169.017C11.424 148.481 33.7494 143.159 47.0934 139.974C50.4374 139.178 53.0774 138.547 54.7947 137.805C69.9947 131.194 74.9494 120.56 76.432 112.801C76.5202 112.34 76.4853 111.863 76.3307 111.419C76.1762 110.975 75.9076 110.58 75.552 110.274C67.6374 103.428 60.96 93.1523 56.7467 81.3319C56.6267 80.9934 56.4399 80.6826 56.1974 80.4181C50.624 74.3476 47.424 67.9298 47.424 62.8158C47.424 59.8286 48.5494 57.8247 51.0827 56.3125C51.4622 56.0852 51.7793 55.7669 52.0055 55.3863C52.2317 55.0057 52.36 54.5748 52.3787 54.1322C53.5574 26.9111 72.9067 5.48271 96.64 5.34377L97.2107 5.38118C121.061 5.71249 140.288 27.6005 140.976 55.2063C140.986 55.5835 141.076 55.9542 141.24 56.2941C141.404 56.634 141.637 56.9353 141.925 57.1781C143.595 58.5942 144.373 60.3897 144.373 62.8265C144.373 67.1068 142.096 72.3704 137.968 77.6394C137.769 77.8915 137.617 78.1775 137.52 78.4837C133.253 92.0354 125.595 104 116.517 111.321C116.14 111.625 115.853 112.025 115.686 112.48C115.519 112.934 115.478 113.426 115.568 113.902C117.051 121.656 122.005 132.285 137.205 138.905C139.003 139.686 141.792 140.295 145.328 141.059C158.539 143.923 180.645 148.727 186.069 169.017C186.16 169.356 186.317 169.674 186.531 169.952C186.744 170.231 187.011 170.464 187.314 170.639C187.618 170.814 187.953 170.928 188.3 170.973C188.647 171.019 189 170.995 189.339 170.904C189.677 170.813 189.994 170.656 190.272 170.442C190.549 170.228 190.782 169.961 190.957 169.657C191.132 169.352 191.245 169.017 191.291 168.669C191.336 168.321 191.312 167.967 191.221 167.628C184.955 144.185 159.909 138.75 146.459 135.833C143.339 135.154 140.645 134.572 139.333 133.995C129.413 129.677 123.301 123.099 121.141 114.41C130.352 106.485 138.059 94.2584 142.464 80.5464C147.141 74.4545 149.712 68.1809 149.712 62.8211C149.712 59.2462 148.56 56.2644 146.277 53.9345C145.008 23.9881 123.68 0.406146 97.2107 0.0267397L96.416 0.0160522C70.4267 0.15499 49.008 23.1171 47.136 52.5451C43.7974 55.0032 42.1014 58.45 42.1014 62.8265C42.1014 69.1481 45.6694 76.7095 51.9147 83.6457C56.2294 95.5249 62.9174 105.961 70.88 113.266C68.7307 121.987 62.6134 128.587 52.672 132.91C51.3867 133.471 48.8267 134.085 45.8614 134.791C32.3094 138.018 7.09336 144.03 0.778693 167.639C0.596328 168.323 0.692777 169.052 1.04683 169.666C1.40088 170.279 1.98355 170.726 2.66669 170.909Z" fill="#3C3E4C"/>
</svg>
