<svg width="16" height="16" viewBox="0 0 16 16" fill="none" xmlns="http://www.w3.org/2000/svg">
<path d="M7.99957 6.83998C7.72957 6.83998 7.47457 6.77498 7.25957 6.65998C7.18457 6.61998 7.10957 6.70498 7.15457 6.77498C7.33457 7.04998 7.64457 7.23498 7.99957 7.23498C8.35457 7.23498 8.66457 7.04998 8.84457 6.77498C8.88957 6.70498 8.80957 6.62498 8.73957 6.65998C8.52457 6.77498 8.27457 6.83998 7.99957 6.83998ZM6.08957 5.13998C6.16457 4.82998 6.44457 4.59998 6.77957 4.59998C7.12457 4.59998 7.41457 4.84498 7.47957 5.17498C7.48337 5.19202 7.48324 5.2097 7.47919 5.22669C7.47514 5.24367 7.46728 5.25951 7.45619 5.273C7.44511 5.2865 7.4311 5.29729 7.41522 5.30456C7.39935 5.31183 7.38203 5.31539 7.36457 5.31498H7.32457C7.33457 5.27498 7.33957 5.23498 7.33957 5.19498C7.33957 4.94498 7.13957 4.73998 6.88457 4.73998C6.81459 4.74011 6.74558 4.75632 6.68286 4.78738C6.62015 4.81843 6.56541 4.86348 6.52289 4.91906C6.48036 4.97463 6.45118 5.03924 6.4376 5.10789C6.42402 5.17654 6.42641 5.24739 6.44457 5.31498H6.22457C6.13457 5.31498 6.06957 5.22998 6.08957 5.13998Z" fill="#3C3E4C"/>
<path d="M7.14498 5.18998C7.14498 5.04498 7.02998 4.92998 6.88498 4.92998C6.84995 4.92942 6.8152 4.93624 6.78298 4.94998C6.79517 4.96073 6.8038 4.97494 6.80771 4.99072C6.81162 5.0065 6.81064 5.0231 6.80488 5.0383C6.79912 5.0535 6.78887 5.06659 6.77549 5.07583C6.76211 5.08506 6.74623 5.08999 6.72998 5.08998C6.71665 5.08995 6.70355 5.0866 6.69185 5.08023C6.68015 5.07385 6.67022 5.06466 6.66298 5.05348C6.63957 5.09189 6.62653 5.13571 6.62513 5.18067C6.62372 5.22563 6.63401 5.27018 6.65498 5.30998H7.11498C7.13498 5.27498 7.14498 5.23498 7.14498 5.18998ZM9.91498 5.13998C9.83998 4.82998 9.55998 4.59998 9.22498 4.59998C8.87498 4.59998 8.58998 4.84498 8.52498 5.17498C8.50998 5.24998 8.56498 5.31498 8.63998 5.31498H8.67498C8.66846 5.28288 8.66511 5.25022 8.66498 5.21748C8.66431 5.15754 8.67562 5.09807 8.69825 5.04257C8.72088 4.98706 8.75437 4.93663 8.79675 4.89425C8.83914 4.85186 8.88956 4.81838 8.94507 4.79575C9.00057 4.77312 9.06004 4.76181 9.11998 4.76248C9.18797 4.76267 9.25505 4.77804 9.31634 4.80748C9.37763 4.83692 9.43156 4.87967 9.47421 4.93262C9.51686 4.98557 9.54714 5.04738 9.56284 5.11353C9.57855 5.17968 9.57927 5.24851 9.56498 5.31498H9.77998C9.86998 5.31498 9.93498 5.22998 9.91498 5.13998Z" fill="#3C3E4C"/>
<path d="M9.02453 4.94755C9.0739 4.92707 9.12841 4.92243 9.18053 4.93426C9.23265 4.9461 9.27981 4.97383 9.31549 5.01363C9.35117 5.05343 9.37361 5.10332 9.3797 5.15642C9.3858 5.20952 9.37526 5.2632 9.34953 5.31005H8.88953C8.86771 5.26878 8.8574 5.22239 8.85969 5.17576C8.86197 5.12914 8.87677 5.08398 8.90253 5.04505C8.9078 5.05581 8.91542 5.06525 8.92482 5.07268C8.93423 5.0801 8.94518 5.08532 8.95688 5.08794C8.96857 5.09057 8.9807 5.09053 8.99238 5.08783C9.00405 5.08514 9.01497 5.07986 9.02433 5.07238C9.0337 5.0649 9.04126 5.05541 9.04646 5.04461C9.05166 5.03382 9.05437 5.02199 9.05439 5.01001C9.05441 4.99803 9.05174 4.98619 9.04657 4.97538C9.0414 4.96457 9.03387 4.95506 9.02453 4.94755Z" fill="#3C3E4C"/>
<path d="M5.7975 1.288C5.94897 1.04626 6.15949 0.847074 6.40924 0.70921C6.65899 0.571346 6.93973 0.499349 7.225 0.500004C7.4665 0.500004 7.6865 0.550004 7.886 0.633004L7.895 0.636504C7.92808 0.651107 7.96384 0.658649 8 0.658649C8.03616 0.658649 8.07192 0.651107 8.105 0.636504L8.108 0.635504C8.31738 0.546495 8.54249 0.500418 8.77 0.500004C9.385 0.500004 9.915 0.830004 10.2145 1.3105L10.2175 1.3155C10.306 1.4615 10.4565 1.5805 10.638 1.6405L10.6435 1.6425C10.8605 1.7175 11.066 1.8375 11.242 2H14.68C14.855 2 14.99 2.14 14.99 2.31V12.18C14.9913 12.2209 14.9844 12.2616 14.9697 12.2998C14.955 12.338 14.9327 12.3728 14.9043 12.4022C14.8758 12.4316 14.8417 12.4549 14.8041 12.4709C14.7664 12.4868 14.7259 12.495 14.685 12.495H13.948C13.9793 12.7427 13.995 12.9943 13.995 13.25V14.5C13.995 15.051 13.546 15.5 12.995 15.5H2.5C2.36739 15.5 2.24021 15.4473 2.14645 15.3536C2.05268 15.2598 2 15.1326 2 15V13.25C2 12.994 2.01567 12.7423 2.047 12.495H1.31C1.14 12.495 1 12.355 1 12.185V2.31C1 2.14 1.14 2 1.31 2H4.754C4.928 1.84 5.1315 1.7185 5.352 1.6425C5.532 1.58 5.692 1.454 5.797 1.288M8.803 8.243C9.16476 8.17472 9.49599 7.99472 9.75009 7.72833C10.0042 7.46194 10.1684 7.12258 10.2195 6.758L10.2585 6.119C10.2623 6.05907 10.2875 6.00249 10.3295 5.95961C10.3716 5.91674 10.4276 5.89043 10.4875 5.8855C10.5478 5.8805 10.6058 5.86667 10.6615 5.844C10.6872 5.82825 10.7143 5.81487 10.7425 5.804C10.8288 5.7523 10.9006 5.67943 10.9509 5.59228C11.0012 5.50512 11.0284 5.40657 11.03 5.30595C11.0316 5.20533 11.0075 5.10597 10.96 5.01726C10.9125 4.92855 10.8431 4.85343 10.7585 4.799C10.719 4.7851 10.6813 4.76629 10.6465 4.743C10.6185 4.73209 10.5895 4.72372 10.56 4.718C10.5363 4.71317 10.5134 4.70492 10.492 4.6935C10.4904 4.70056 10.4896 4.70777 10.4895 4.715V5.27C10.4895 5.8 10.0595 6.225 9.5345 6.225H9.1795C9.04104 6.22532 8.90419 6.19536 8.77852 6.13724C8.65286 6.07911 8.54141 5.99422 8.452 5.8885L8.4895 6.01C8.5445 6.185 8.4145 6.365 8.2295 6.365H7.8395C7.6545 6.365 7.5245 6.185 7.5795 6.01L7.6115 5.9065C7.4365 6.102 7.1815 6.225 6.8995 6.225H6.5445C6.29122 6.225 6.04831 6.12439 5.86921 5.94529C5.69012 5.76619 5.5895 5.52329 5.5895 5.27V4.72C5.58889 4.70663 5.58513 4.6936 5.57852 4.68195C5.57192 4.67031 5.56266 4.66039 5.5515 4.653C5.51533 4.68284 5.47149 4.7019 5.425 4.708C5.39707 4.71134 5.36947 4.71703 5.3425 4.725C5.29291 4.75933 5.23752 4.7844 5.179 4.799C5.0947 4.85395 5.02582 4.92951 4.97889 5.01852C4.93197 5.10754 4.90855 5.20706 4.91085 5.30766C4.91315 5.40826 4.94111 5.5066 4.99206 5.59338C5.04301 5.68015 5.11527 5.75248 5.202 5.8035C5.247 5.81684 5.28867 5.83517 5.327 5.8585C5.38333 5.87617 5.44133 5.885 5.501 5.885C5.56462 5.88487 5.6259 5.90901 5.67235 5.95248C5.7188 5.99596 5.74693 6.05551 5.751 6.119L5.794 6.7735C5.84704 7.13503 6.0116 7.47098 6.26472 7.7345C6.51784 7.99802 6.8469 8.17596 7.206 8.2435H7.2195V8.2455C7.32017 8.26384 7.42233 8.27317 7.526 8.2735H8.484C8.584 8.2735 8.68233 8.26484 8.779 8.2475V8.243H8.803ZM10.3685 4.245L10.377 4.0315C10.3811 3.90129 10.3336 3.77472 10.245 3.67925C10.1564 3.58378 10.0337 3.5271 9.9035 3.5215H9.197C8.90891 3.52208 8.62675 3.43968 8.38425 3.28416C8.14174 3.12864 7.94915 2.90657 7.8295 2.6445C7.82252 2.62608 7.81025 2.61014 7.79424 2.59866C7.77823 2.58719 7.75919 2.5807 7.7395 2.58H7.0845C6.69682 2.58038 6.32495 2.73374 6.0497 3.00674C5.77445 3.27974 5.61806 3.65034 5.6145 4.038L5.6285 4.248C5.63874 4.2462 5.6491 4.2452 5.6595 4.245H6.1815C6.15383 4.22827 6.13281 4.20248 6.122 4.172C6.1124 4.14509 6.11158 4.11583 6.11967 4.08843C6.12775 4.06102 6.14433 4.03689 6.167 4.0195C6.44334 3.82564 6.78228 3.74233 7.117 3.786C7.14363 3.78929 7.1687 3.80031 7.18912 3.81772C7.20954 3.83512 7.22439 3.85814 7.23185 3.88391C7.2393 3.90968 7.23903 3.93707 7.23105 3.96269C7.22308 3.9883 7.20776 4.01102 7.187 4.028C7.17301 4.03904 7.15696 4.0472 7.1398 4.052C7.12264 4.05681 7.10469 4.05817 7.087 4.056C6.81692 4.02199 6.54381 4.08933 6.3205 4.245H7.4C7.55 4.245 7.69 4.315 7.785 4.43C7.845 4.505 7.935 4.55 8.04 4.55C8.145 4.55 8.235 4.505 8.295 4.43C8.39 4.315 8.53 4.245 8.68 4.245H9.686L9.6725 4.2355C9.45137 4.08947 9.18563 4.02658 8.9225 4.058C8.88714 4.0608 8.85208 4.04977 8.82468 4.02724C8.79729 4.0047 8.7797 3.97243 8.77562 3.93719C8.77154 3.90196 8.78128 3.86651 8.8028 3.83832C8.82432 3.81012 8.85594 3.79137 8.891 3.786C9.22567 3.74331 9.56426 3.82653 9.841 4.0195C9.85848 4.03328 9.87234 4.0511 9.88139 4.07144C9.89043 4.09177 9.89439 4.114 9.89291 4.13621C9.89143 4.15841 9.88457 4.17992 9.87291 4.19888C9.86125 4.21784 9.84515 4.23367 9.826 4.245H10.3685ZM8.2245 5.155V4.97C8.2227 4.92198 8.20248 4.87648 8.16804 4.84297C8.13359 4.80945 8.08756 4.79048 8.0395 4.79C7.9395 4.79 7.8595 4.865 7.8545 4.965V5.129C7.9295 4.9655 8.172 4.974 8.2245 5.155ZM7.2595 8.756C7.31087 8.91123 7.4098 9.04634 7.54227 9.14217C7.67474 9.23801 7.83403 9.2897 7.99753 9.28992C8.16103 9.29014 8.32045 9.23888 8.45318 9.14341C8.58591 9.04793 8.68521 8.91309 8.737 8.75801C8.65367 8.76801 8.56983 8.77317 8.4855 8.77351H7.5275C7.4375 8.77351 7.348 8.76767 7.259 8.756M9.94 8.61401L10.36 9.517C10.405 9.6035 10.335 9.7035 10.229 9.7035H9.7005C9.5795 9.7035 9.524 9.836 9.605 9.9085L9.7075 10H10.419C10.644 10 10.824 10.18 10.824 10.405V10.422H10.827V11.3H10.834C11.247 11.3 11.584 11.637 11.584 12.05V14.5H12.994V13.25C12.994 11.225 11.794 9.483 10.0655 8.696C10.0198 8.67513 9.97747 8.64749 9.94 8.61401ZM10.824 11.8005V12.344C10.8269 12.3785 10.8226 12.4132 10.8114 12.4459C10.8002 12.4786 10.7824 12.5087 10.759 12.5342C10.7356 12.5596 10.7071 12.58 10.6755 12.5939C10.6438 12.6078 10.6096 12.615 10.575 12.615H9.3C9.28354 12.6183 9.26679 12.62 9.25 12.62C9.1715 12.62 9.1165 12.681 9.115 12.741V12.744C9.11463 12.7655 9.11982 12.7868 9.13007 12.8057C9.14032 12.8246 9.15528 12.8406 9.1735 12.852C9.20792 12.875 9.2361 12.9061 9.2555 12.9427C9.27491 12.9792 9.28494 13.02 9.28469 13.0614C9.28444 13.1028 9.27393 13.1435 9.25408 13.1798C9.23424 13.2161 9.20569 13.2469 9.171 13.2695C9.1543 13.2805 9.1405 13.2954 9.13075 13.3129C9.12101 13.3304 9.1156 13.35 9.115 13.37C9.115 13.415 9.136 13.4485 9.1665 13.4675C9.20229 13.4897 9.23191 13.5205 9.25261 13.5571C9.27331 13.5938 9.28443 13.635 9.28493 13.6771C9.28543 13.7192 9.27529 13.7607 9.25546 13.7979C9.23564 13.835 9.20676 13.8665 9.1715 13.8895C9.15471 13.9005 9.14081 13.9154 9.13097 13.9329C9.12114 13.9503 9.11566 13.9699 9.115 13.99C9.115 14.035 9.136 14.0685 9.1665 14.0875C9.20109 14.1089 9.22994 14.1385 9.25053 14.1735C9.27112 14.2086 9.28284 14.2482 9.28466 14.2889C9.28648 14.3295 9.27836 14.37 9.26099 14.4068C9.24362 14.4436 9.21754 14.4756 9.185 14.5H11.085V12.05C11.0848 12.0164 11.0779 11.9831 11.0646 11.9522C11.0514 11.9213 11.0321 11.8934 11.0078 11.8701C10.9836 11.8468 10.9549 11.8286 10.9235 11.8165C10.8921 11.8045 10.8586 11.7989 10.825 11.8M10.328 11.2995V10.4295H6.05C5.93463 10.4295 5.82399 10.4753 5.74241 10.5569C5.66083 10.6385 5.615 10.7491 5.615 10.8645C5.615 10.9799 5.66083 11.0905 5.74241 11.1721C5.82399 11.2537 5.93463 11.2995 6.05 11.2995H10.328ZM9.0265 9.2695C8.90392 9.4357 8.74289 9.56972 8.5572 9.66009C8.37151 9.75045 8.16669 9.79447 7.96027 9.78838C7.75384 9.78228 7.55197 9.72625 7.37194 9.62509C7.1919 9.52393 7.03906 9.38065 6.9265 9.20751V10H9.0265V9.2695ZM6.3475 9.9085C6.428 9.8355 6.3725 9.7035 6.252 9.7035H5.723C5.6175 9.7035 5.547 9.60301 5.592 9.51651L6.0705 8.5995C6.02894 8.64043 5.98055 8.67376 5.9275 8.698C5.05415 9.09579 4.31372 9.73651 3.79462 10.5437C3.27551 11.3508 2.99966 12.2903 3 13.25V14.5H4.41V12.05C4.41 11.83 4.517 11.6415 4.6515 11.5135C4.7815 11.3905 4.963 11.2995 5.155 11.3V10.94C5.155 10.42 5.575 9.995 6.1 10H6.245L6.3475 9.9085ZM5.155 11.8C5.09429 11.8052 5.03757 11.8324 4.9955 11.8765C4.97044 11.8983 4.94997 11.9249 4.93529 11.9547C4.92061 11.9844 4.91201 12.0169 4.91 12.05V14.5H6.81C6.77746 14.4756 6.75138 14.4436 6.73401 14.4068C6.71664 14.37 6.70852 14.3295 6.71034 14.2889C6.71216 14.2482 6.72388 14.2086 6.74447 14.1735C6.76506 14.1385 6.79391 14.1089 6.8285 14.0875C6.84491 14.0772 6.85831 14.0628 6.86735 14.0457C6.87639 14.0286 6.88076 14.0094 6.88 13.99C6.87932 13.9701 6.87388 13.9506 6.86414 13.9332C6.85439 13.9158 6.84063 13.901 6.824 13.89C6.78861 13.8671 6.75959 13.8356 6.73965 13.7984C6.7197 13.7613 6.70948 13.7197 6.70993 13.6775C6.71038 13.6354 6.72149 13.594 6.74222 13.5573C6.76295 13.5205 6.79263 13.4897 6.8285 13.4675C6.84491 13.4572 6.85831 13.4428 6.86735 13.4257C6.87639 13.4086 6.88076 13.3894 6.88 13.37C6.87932 13.3501 6.87388 13.3306 6.86414 13.3132C6.85439 13.2958 6.84063 13.281 6.824 13.27C6.7892 13.2475 6.76056 13.2166 6.74064 13.1803C6.72073 13.1439 6.71018 13.1031 6.70993 13.0617C6.70968 13.0202 6.71975 12.9793 6.73922 12.9427C6.7587 12.9061 6.78697 12.875 6.8215 12.852C6.83972 12.8406 6.85468 12.8246 6.86493 12.8057C6.87518 12.7868 6.88037 12.7655 6.88 12.744V12.741C6.8785 12.681 6.8235 12.62 6.745 12.62C6.72821 12.62 6.71146 12.6183 6.695 12.615H5.413C5.34839 12.6151 5.28627 12.5901 5.23967 12.5454C5.19306 12.5006 5.16558 12.4396 5.163 12.375H5.16V11.8H5.155ZM4.228 3H2V11.495H2.2605C2.70755 10.0389 3.69034 8.8067 5.0105 8.047C4.87399 7.76813 4.78236 7.46945 4.739 7.162C4.65843 7.00398 4.6047 6.83366 4.58 6.658C4.072 6.4195 3.733 5.8905 3.733 5.2985C3.733 4.7745 3.9985 4.2995 4.412 4.032C4.24349 3.71598 4.17909 3.3548 4.228 3ZM13.735 11.495H13.995V3H11.766C11.8173 3.37202 11.744 3.75055 11.5575 4.0765C11.7489 4.21746 11.9043 4.40159 12.011 4.61394C12.1178 4.82628 12.173 5.06083 12.172 5.2985C12.1738 5.56463 12.1048 5.82645 11.972 6.0571C11.8393 6.28775 11.6475 6.47892 11.4165 6.611C11.3958 6.80631 11.3394 6.99614 11.25 7.171C11.2058 7.47378 11.1156 7.76801 10.9825 8.0435C12.3046 8.80317 13.2886 10.037 13.735 11.495ZM6.86 6.045C7.315 6.045 7.685 5.675 7.685 5.22H7.68V4.86C7.68 4.615 7.485 4.42 7.24 4.42H6.2C5.955 4.42 5.76 4.615 5.76 4.86V5.22C5.76 5.675 6.13 6.045 6.585 6.045H6.86ZM9.5 6.045C9.955 6.045 10.325 5.675 10.325 5.22V4.86C10.325 4.615 10.13 4.42 9.885 4.42H8.84C8.595 4.42 8.4 4.615 8.4 4.86V5.22C8.4 5.675 8.77 6.045 9.225 6.045H9.5Z" fill="#3C3E4C"/>
</svg>
