<svg width="25" height="25" viewBox="0 0 25 25" fill="none" xmlns="http://www.w3.org/2000/svg">
<path d="M12.4997 2.08337C6.74967 2.08337 2.08301 6.75004 2.08301 12.5C2.08301 18.25 6.74967 22.9167 12.4997 22.9167C18.2497 22.9167 22.9163 18.25 22.9163 12.5C22.9163 6.75004 18.2497 2.08337 12.4997 2.08337ZM17.333 9.16671C17.1768 10.8125 16.4997 14.8125 16.1559 16.6563C16.0101 17.4375 15.7184 17.698 15.4476 17.7292C14.8434 17.7813 14.3851 17.3334 13.8018 16.948C12.8851 16.3438 12.3643 15.9688 11.4788 15.3855C10.4476 14.7084 11.1143 14.3334 11.708 13.7292C11.8643 13.573 14.5309 11.1459 14.583 10.9271C14.5902 10.894 14.5893 10.8596 14.5802 10.8269C14.5711 10.7942 14.5542 10.7643 14.5309 10.7396C14.4684 10.6875 14.3851 10.7084 14.3122 10.7188C14.2184 10.7396 12.7601 11.7084 9.91634 13.625C9.49968 13.9063 9.12467 14.0521 8.79134 14.0417C8.41634 14.0313 7.70801 13.8334 7.17676 13.6563C6.52051 13.448 6.01009 13.3334 6.05176 12.9688C6.07259 12.7813 6.33301 12.5938 6.82259 12.3959C9.86426 11.073 11.8851 10.198 12.8955 9.78129C15.7913 8.57296 16.3851 8.36462 16.7809 8.36462C16.8643 8.36462 17.0622 8.38546 17.1872 8.48962C17.2913 8.57296 17.3226 8.68754 17.333 8.77087C17.3226 8.83337 17.3434 9.02087 17.333 9.16671Z" fill="#64677E"/>
</svg>
