<svg width="25" height="25" viewBox="0 0 25 25" fill="none" xmlns="http://www.w3.org/2000/svg">
<path d="M4.4375 4.4375C3.125 5.7625 3.125 7.88125 3.125 12.125V12.875C3.125 17.1125 3.125 19.2312 4.4375 20.5625C5.7625 21.875 7.88125 21.875 12.125 21.875H12.875C17.1125 21.875 19.2312 21.875 20.5625 20.5625C21.875 19.2375 21.875 17.1187 21.875 12.875V12.125C21.875 7.8875 21.875 5.76875 20.5625 4.4375C19.2375 3.125 17.1187 3.125 12.875 3.125H12.125C7.8875 3.125 5.76875 3.125 4.4375 4.4375ZM6.2875 8.83125H8.4375C8.50625 12.4062 10.0813 13.9187 11.3313 14.2312V8.83125H13.35V11.9125C14.5812 11.7812 15.8813 10.375 16.3187 8.825H18.3312C18.167 9.62731 17.8392 10.3872 17.3682 11.0571C16.8972 11.727 16.2931 12.2927 15.5938 12.7188C16.3744 13.1072 17.0638 13.6567 17.6165 14.3311C18.1692 15.0055 18.5726 15.7895 18.8 16.6312H16.5813C16.1062 15.15 14.9187 14 13.35 13.8438V16.6312H13.1C8.825 16.6312 6.3875 13.7062 6.2875 8.83125Z" fill="#64677E"/>
</svg>
