<svg width="16" height="16" viewBox="0 0 16 16" fill="none" xmlns="http://www.w3.org/2000/svg">
<path d="M14.2222 16C14.7111 16 15.1296 15.8259 15.4778 15.4778C15.8259 15.1296 16 14.7111 16 14.2222V1.77778C16 1.28889 15.8259 0.87037 15.4778 0.522222C15.1296 0.174074 14.7111 0 14.2222 0H1.77778C1.28889 0 0.87037 0.174074 0.522222 0.522222C0.174073 0.87037 0 1.28889 0 1.77778V14.2222C0 14.7111 0.174073 15.1296 0.522222 15.4778C0.87037 15.8259 1.28889 16 1.77778 16H14.2222ZM9.77778 3.55556H8V1.77778H9.77778V3.55556ZM8 8.88889H6.22222V7.11111H8V8.88889ZM8 5.33333H6.22222V3.55556H8V5.33333ZM9.77778 7.11111H8V5.33333H9.77778V7.11111ZM9.77778 10.6667H8V8.88889H9.77778V10.6667ZM8 12.4444H6.22222V10.6667H8V12.4444Z" fill="black" fill-opacity="0.5"/>
</svg>
